<svg id="Ebene_1" data-name="Ebene 1" xmlns="http://www.w3.org/2000/svg" viewBox="0 0 913.46 913.04"><title>noun_Contrast_1877935</title><path d="M752.89,827.24l.24-.17C754.88,825.71,760.12,821.52,752.89,827.24Z" transform="translate(-55.27 -55.48)" style="fill:#fff"/><path d="M827.31,270.9l-.18-.23C825.77,268.92,821.58,263.68,827.31,270.9Z" transform="translate(-55.27 -55.48)" style="fill:#fff"/><path d="M968.73,511.87c-.1-86.4-24.8-172.7-71.5-245.5C852,196,787.53,137.57,712,101.27c-38.6-18.6-79.3-32.2-121.5-39.3a477.64,477.64,0,0,0-150-1.1c-100.7,15-195.8,66.6-264.4,141.5-75.4,82.3-118.9,190.3-120.8,302-.9,54.5,7.9,109.8,26.5,161a470,470,0,0,0,75.7,134.1c57.2,71.4,137.1,124.2,224.6,150.3s183.5,25,270.2-3.2c79.7-26,152.4-73.8,206.6-137.8,55.1-65,92.7-144.6,104.6-229.2,3.1-22.5,5.2-45,5.2-67.7ZM756,198.87c.05,0-1.73-1.35-2.93-2.28A15.59,15.59,0,0,1,756,198.87ZM824.93,756s1.34-1.74,2.28-2.93A15.59,15.59,0,0,1,824.93,756Zm80.34-189.83A430.36,430.36,0,0,1,878.6,664.2a440.84,440.84,0,0,1-29.07,56.17c-5.5,9-11.4,17.7-17.5,26.2-1.37,1.92-2.83,3.84-4.29,5.76-.13.15-.29.36-.51.64q-5.25,6.75-10.8,13.2a444.15,444.15,0,0,1-44,44.9q-5.85,5.25-12,10.2c-2,1.7-4.1,3.3-6.1,4.9-.7.5-1.4,1.1-2.1,1.6l.66-.53c-8.32,6.24-16.84,12.18-25.66,17.83a432.22,432.22,0,0,1-63.75,33.7A420.65,420.65,0,0,1,567.19,905q-17.67,2.25-35.46,3V119.67c0-1.37,0-2.73,0-4.09q17.28.78,34.5,3a431,431,0,0,1,98,26.66,440.24,440.24,0,0,1,56.17,29.08c9,5.5,17.7,11.4,26.2,17.5,1.92,1.37,3.84,2.83,5.76,4.29l.64.51q6.75,5.25,13.2,10.8a444.15,444.15,0,0,1,44.9,44q5.25,5.85,10.2,12c1.7,2,3.3,4.1,4.9,6.1.5.7,1.1,1.4,1.6,2.1l-.52-.67c6.23,8.33,12.17,16.85,17.82,25.67a432.81,432.81,0,0,1,33.29,62.79,430.33,430.33,0,0,1,26.91,99.86,408,408,0,0,1,3.4,52.65A433.36,433.36,0,0,1,905.27,566.14Z" transform="translate(-55.27 -55.48)" style="fill:#fff"/></svg>