<?xml version="1.0" encoding="utf-8"?>
<!-- Generator: Adobe Illustrator 27.0.0, SVG Export Plug-In . SVG Version: 6.00 Build 0)  -->
<svg version="1.1" id="Ebene_1" xmlns="http://www.w3.org/2000/svg" xmlns:xlink="http://www.w3.org/1999/xlink" x="0px" y="0px"
	 viewBox="0 0 240 240" style="enable-background:new 0 0 240 240;" xml:space="preserve">
<style type="text/css">
	.st0{fill:#FFFFFF;}
</style>
<g>
	<path class="st0" d="M159,170.4c0-4.4-3.4-7.9-7.5-7.9H85.6c-4.1,0-7.5,3.5-7.5,7.9v11.2c0,4.4,3.4,7.9,7.5,7.9h65.9
		c4.1,0,7.5-3.5,7.5-7.9V170.4z M150,180.5H87.1v-8.9H150V180.5z"/>
	<path class="st0" d="M118.4,48.8L118.4,48.8c0,2.3,1.7,4.3,4,4.5c6.4,0.7,12.6,2.8,18.3,6.1c5.3,3.2,9.7,7.5,13,12.6
		c1.2,1.9,3.7,2.6,5.8,1.6l0,0c2.4-1.2,3.2-4.2,1.8-6.4c-4.1-6.2-9.5-11.5-15.9-15.4c-6.7-4.1-14.2-6.6-22-7.5
		C120.7,44.1,118.4,46.2,118.4,48.8z"/>
	<path class="st0" d="M88.5,218.2c1.3,2.1,3.6,3.4,6.2,3.4h47.7c2.5,0,4.8-1.2,6.4-3.4l6.4-9.5c1.6-2.3,1.8-5.2,0.5-7.7
		s-3.8-4-6.7-4H88.4c-2.8,0-5.3,1.5-6.7,4c-1.3,2.5-1.2,5.4,0.4,7.7L88.5,218.2z M145.9,206.1l-4.4,6.5H95.4l-4.4-6.5H145.9z"/>
	<path class="st0" d="M181.6,111.3v-0.2c10.1-29.3-1.3-62-27.2-77.9c-10.4-6.4-22.4-9.7-34.6-9.7c-15.3,0-30.2,5.4-41.9,15.1
		C57.6,55.5,49.8,83,58,108.6c0.1,0.3,0.2,0.5,0.3,0.8l0.2,0.4l19.8,39.4c1.3,2.5,3.9,4.1,6.7,4.1l67.8,0.6c2.7,0,5.1-1.4,6.6-3.9
		l21.8-37.7C181.2,112.1,181.4,111.7,181.6,111.3z M173.2,108.1l-21.3,36.8h-0.3l-65.7-0.5l-19.4-38.5C59.6,83.7,66.4,60,83.7,45.5
		c10.2-8.5,22.7-13,36.1-13c10.7,0,21.1,2.9,30,8.4C172,54.6,181.9,82.8,173.2,108.1z"/>
</g>
</svg>
