<?xml version="1.0" encoding="UTF-8"?><svg id="Ebene_1" xmlns="http://www.w3.org/2000/svg" viewBox="0 0 240 240"><defs><style>.cls-1{fill:#1d1d1b;}</style></defs><path class="cls-1" d="M64.21,59.4c-1.2-1.88-3.51-2.74-5.65-2.1-2.14,.64-3.6,2.62-3.57,4.86l1.87,137.9c.04,2.74,2.27,4.93,5,4.93h.07c2.76-.04,4.97-2.31,4.93-5.07l-.65-48.09c.21-.03,.42-.08,.63-.14l37.33-11.18,25.87,40.49c1.49,2.33,4.58,3.01,6.91,1.52,2.33-1.49,3.01-4.58,1.52-6.91L64.21,59.4Zm1.86,82.09l-.84-61.91,33.34,52.18-32.5,9.74Zm138.03-50.93c0,14.56-5.67,28.24-15.96,38.54-10.29,10.29-23.98,15.96-38.54,15.96-2.76,0-5-2.24-5-5s2.24-5,5-5c11.89,0,23.06-4.63,31.47-13.03,8.4-8.41,13.03-19.58,13.03-31.47s-4.63-23.06-13.03-31.47c-16.82-16.82-43.87-17.33-61.32-1.54l26.77,10.41c2.57,1,3.85,3.9,2.85,6.47-.77,1.98-2.66,3.19-4.66,3.19-.6,0-1.22-.11-1.81-.34l-39.6-15.4c-1.29-.5-2.31-1.51-2.83-2.8s-.48-2.72,.11-3.97l17.93-38.52c1.17-2.5,4.14-3.59,6.64-2.42,2.5,1.17,3.59,4.14,2.42,6.64l-13.06,28.06c21.39-18.03,53.49-16.99,73.63,3.15,10.29,10.29,15.96,23.98,15.96,38.54Z"/></svg>