<?xml version="1.0" encoding="UTF-8"?><svg id="Ebene_1" xmlns="http://www.w3.org/2000/svg" viewBox="0 0 240 240"><defs><style>.cls-1{fill:#fff;}</style></defs><path class="cls-1" d="M180.01,162.5l-54.74,55.68c-1.16,1.18-2.7,1.82-4.35,1.82-.82,0-1.62-.17-2.38-.49l-.06-.03-.06-.02c-1.7-.45-3.12-1.62-3.89-3.2l-.07-.15-.12-.11-54.73-52.93c-2.42-2.34-2.48-6.21-.14-8.62,1.16-1.2,2.72-1.86,4.38-1.86s3.09,.61,4.24,1.71l44.22,42.77,1.59,1.54V26.1c0-3.36,2.74-6.1,6.1-6.1s6.1,2.74,6.1,6.1V199.96l1.61-1.63,43.63-44.37c1.16-1.18,2.7-1.82,4.35-1.82,1.61,0,3.13,.62,4.27,1.75,2.4,2.36,2.43,6.23,.07,8.62Z"/></svg>