<?xml version="1.0" encoding="utf-8"?>
<!-- Generator: Adobe Illustrator 27.1.1, SVG Export Plug-In . SVG Version: 6.00 Build 0)  -->
<svg version="1.1" id="Ebene_1" xmlns="http://www.w3.org/2000/svg" xmlns:xlink="http://www.w3.org/1999/xlink" x="0px" y="0px"
	 viewBox="0 0 240 240" style="enable-background:new 0 0 240 240;" xml:space="preserve">
<style type="text/css">
	.st0{fill:#FFFFFF;}
</style>
<path class="st0" d="M15.2,229.5c-0.6,0-1.1-0.1-1.7-0.3c-2.8-0.9-4.3-4-3.4-6.8L28,169.4L12.6,162c-1.9-0.9-3.2-3-3-5.1
	c0.1-2.2,1.6-4,3.6-4.7l23.2-7.8l13.1-39.1L12.4,84.8c-2.1-1.2-3.2-3.6-2.6-6c0.6-2.4,2.7-4,5.2-4h44.8l1.6-4.6L11.2,19.8
	c-1.7-1.7-2.1-4.5-0.8-6.6c1.3-2.1,3.9-3,6.2-2.3l58.1,19.2L80,14.3c0.7-2.2,2.8-3.6,5.1-3.6h141.5c1.4,0,2.8,0.6,3.8,1.6
	c1,1,1.6,2.4,1.5,3.8l-0.5,68.4c0.1,0.4,0.1,0.8,0.2,1.3c0,0.5-0.1,0.9-0.2,1.4l-1.1,133.8c0,2.5-1.7,4.6-4.1,5.2
	c-2.4,0.6-4.9-0.6-6-2.8l-55.5-111l-21.5,7.3l-5.8,11.7l22.1,22.2c1.9,1.9,2.1,4.9,0.5,7c-1.6,2.1-4.5,2.8-6.8,1.5l-24.4-13.4
	L116,173.9l41.8,46.7c1.7,1.9,1.8,4.7,0.3,6.8c-1.5,2-4.3,2.7-6.6,1.6l-50.7-24.4l-10.9,22c-1.1,2.2-3.6,3.4-6,2.8
	c-2.4-0.6-4.1-2.7-4.1-5.2v-29.8l-42.1-20.3l-17.4,51.8C19.5,228.1,17.4,229.5,15.2,229.5L15.2,229.5z M105.6,195l26.3,12.7
	l-21-23.4L105.6,195L105.6,195z M90.4,199.5v1.9l0.7-1.5L90.4,199.5L90.4,199.5z M174.8,108.7l44.9,89.8l0.8-105.3L174.8,108.7
	L174.8,108.7z M90.4,187.7l5.5,2.7l7.3-14.7l-12.8-14.3V187.7z M41.1,163.9l38.7,18.7v-41.6l-34.9,11.8L41.1,163.9L41.1,163.9z
	 M90.4,145.3l17.9,20l10.9-22l-17.9-9.8l-10.9,3.7L90.4,145.3L90.4,145.3z M29,158.1l2.4,1.1l0.7-2.2L29,158.1z M59.1,110.4
	L49.1,140l30.6-10.4v-7.9C79.7,121.7,59.1,110.4,59.1,110.4z M115.1,128.9l8.9,4.9l0.2-0.5l-5.6-5.6L115.1,128.9L115.1,128.9z
	 M90.4,115.4l12,6.6l7.9-2.7L90.4,99.4V115.4L90.4,115.4z M90.4,84.2l31.1,31.2l13.9-4.7l15.4-30.9c0.9-1.8,2.8-3,4.8-3l0,0
	c2,0,3.9,1.1,4.8,3l9.6,19.3l39.3-13.3L81.5,43.6l-7.9,23.7l7.5,7.5h4.1c3,0,5.3,2.4,5.3,5.3L90.4,84.2L90.4,84.2z M62.5,100.1
	l17.2,9.5V88.6l-3.2-3.2h-9.1L62.5,100.1L62.5,100.1z M155.6,94.2l-5.8,11.7l10-3.4L155.6,94.2z M35.8,85.4L53,94.9l3.2-9.4H35.8z
	 M84.9,33.5l135.8,44.8l0.5-56.9H88.9L84.9,33.5L84.9,33.5z M34.5,28.1l30.6,30.7l6.2-18.6L34.5,28.1L34.5,28.1z"/>
</svg>
