<?xml version="1.0" encoding="utf-8"?>
<!-- Generator: Adobe Illustrator 27.1.1, SVG Export Plug-In . SVG Version: 6.00 Build 0)  -->
<svg version="1.1" id="Ebene_1" xmlns="http://www.w3.org/2000/svg" xmlns:xlink="http://www.w3.org/1999/xlink" x="0px" y="0px"
	 viewBox="0 0 240 240" style="enable-background:new 0 0 240 240;" xml:space="preserve">
<style type="text/css">
	.st0{fill:#FFFFFF;}
</style>
<path class="st0" d="M107.5,235.7H11.7c-3.1,0-5.7-2.5-5.7-5.7v-95.8c0-3.1,2.5-5.7,5.7-5.7h95.8c3.1,0,5.7,2.5,5.7,5.7V230
	C113.2,233.1,110.6,235.7,107.5,235.7z M17.3,224.3h84.5v-84.5H17.3C17.3,139.8,17.3,224.3,17.3,224.3z M83.5,211.7H35.6
	c-3.1,0-5.7-2.5-5.7-5.7v-47.9c0-3.1,2.5-5.7,5.7-5.7h47.9c3.1,0,5.7,2.5,5.7,5.7V206C89.2,209.2,86.7,211.7,83.5,211.7L83.5,211.7z
	 M41.3,200.4h36.6v-36.6H41.3V200.4z M107.8,112.8H12c-3.1,0-5.7-2.5-5.7-5.7V11.3c0-3.1,2.5-5.7,5.7-5.7h95.8
	c3.1,0,5.7,2.5,5.7,5.7v95.8C113.5,110.3,111,112.8,107.8,112.8L107.8,112.8z M17.7,101.5h84.5V17H17.7L17.7,101.5L17.7,101.5z
	 M83.9,88.8H36c-3.1,0-5.7-2.5-5.7-5.7V35.3c0-3.1,2.5-5.7,5.7-5.7h47.9c3.1,0,5.7,2.5,5.7,5.7v47.9C89.5,86.3,87,88.8,83.9,88.8
	L83.9,88.8z M41.6,77.5h36.6V40.9H41.6V77.5z M228.7,235h-95.8c-3.1,0-5.7-2.5-5.7-5.7v-95.8c0-3.1,2.5-5.7,5.7-5.7h95.8
	c3.1,0,5.7,2.5,5.7,5.7v95.8C234.3,232.4,231.8,235,228.7,235z M138.5,223.6H223v-84.5h-84.5V223.6z M204,211.7h-47.9
	c-3.1,0-5.7-2.5-5.7-5.7v-47.9c0-3.1,2.5-5.7,5.7-5.7H204c3.1,0,5.7,2.5,5.7,5.7V206C209.7,209.2,207.1,211.7,204,211.7z
	 M161.8,200.4h36.6v-36.6h-36.6V200.4z M229.3,112.4h-95.8c-3.1,0-5.7-2.5-5.7-5.7V11c0-3.1,2.5-5.7,5.7-5.7h95.8
	c3.1,0,5.7,2.5,5.7,5.7v95.8C235,109.9,232.5,112.5,229.3,112.4L229.3,112.4z M139.2,101.1h84.5V16.6h-84.5V101.1L139.2,101.1z
	 M205.4,88.5h-47.9c-3.1,0-5.7-2.5-5.7-5.7V34.9c0-3.1,2.5-5.7,5.7-5.7h47.9c3.1,0,5.7,2.5,5.7,5.7v47.9
	C211.1,86,208.5,88.5,205.4,88.5L205.4,88.5z M163.1,77.1h36.6V40.6h-36.6V77.1z"/>
</svg>
