<?xml version="1.0" encoding="UTF-8"?><svg id="Ebene_1" xmlns="http://www.w3.org/2000/svg" viewBox="0 0 240 240"><defs><style>.cls-1{fill:#1d1d1b;}</style></defs><path class="cls-1" d="M204.84,178.75l-31-120c-.57-2.21-2.56-3.75-4.84-3.75h-44V20.38c0-2.76-2.24-5-5-5s-5,2.24-5,5V55h-44c-2.28,0-4.27,1.54-4.84,3.75l-31,120c-.39,1.5-.06,3.09,.89,4.31s2.41,1.94,3.95,1.94H115v35.42c0,2.76,2.24,5,5,5s5-2.24,5-5v-35.42h75c1.55,0,3.01-.72,3.95-1.94s1.27-2.81,.89-4.31Zm-158.38-3.75l28.42-110h40.13v110H46.46Zm78.54,0V65h40.13l28.42,110H125Z"/></svg>