<?xml version="1.0" encoding="utf-8"?>
<!-- Generator: Adobe Illustrator 27.1.1, SVG Export Plug-In . SVG Version: 6.00 Build 0)  -->
<svg version="1.1" id="Ebene_1" xmlns="http://www.w3.org/2000/svg" xmlns:xlink="http://www.w3.org/1999/xlink" x="0px" y="0px"
	 viewBox="0 0 240 240" style="enable-background:new 0 0 240 240;" xml:space="preserve">
<style type="text/css">
	.st0{fill:#FFFFFF;}
</style>
<path class="st0" d="M232.9,193.4c2.8-1.3,4.1-4.7,2.7-7.5l-18.4-39.6c-0.8-1.7-2.4-2.9-4.3-3.2c-1.9-0.3-3.8,0.4-5,1.8l-24.1,26.3
	L154,58.2c-0.6-2.2-2.4-3.8-4.7-4.2c-2.3-0.3-4.5,0.8-5.6,2.7l-53.8,90.9L61.8,82.8c-0.8-1.9-2.7-3.3-4.8-3.4
	c-2.1-0.1-4.1,0.9-5.2,2.7l-45.3,75c-1.6,2.7-0.8,6.2,1.9,7.8c2.7,1.6,6.2,0.7,7.8-1.9l39.6-65.6l28.2,64.9c0.8,2,2.7,3.3,4.8,3.4
	c2.1,0.1,4.1-0.9,5.2-2.8l52.5-88.8l29.1,110c0.5,2,2.1,3.6,4.1,4c2,0.5,4.1-0.1,5.5-1.7l25.4-27.7l14.8,31.9c1,2.1,3,3.3,5.1,3.3
	C231.4,194,232.2,193.8,232.9,193.4L232.9,193.4z"/>
<path class="st0" d="M232.9,148.5c2.8-1.3,4.1-4.6,2.8-7.5l-15.6-34.3c-0.8-1.8-2.5-3-4.4-3.3c-1.9-0.3-3.9,0.5-5.1,2.1l-17,21.1
	L162.5,10c-0.6-2.1-2.3-3.7-4.5-4.1c-2.2-0.4-4.4,0.6-5.6,2.4L90.6,98.4L66.1,33.5c-0.7-2-2.5-3.4-4.7-3.6c-2.1-0.2-4.2,0.7-5.3,2.5
	L5.2,108.8c-1.7,2.6-1,6.1,1.6,7.9c2.6,1.7,6.1,1,7.9-1.6l44.8-67.2l24.4,64.7c0.7,2,2.5,3.4,4.6,3.6c2.1,0.3,4.2-0.7,5.3-2.4
	l60.9-88.9l30.8,115.4c0.6,2.1,2.2,3.6,4.3,4.1c2.1,0.4,4.2-0.3,5.6-2l18.3-22.6l11.8,25.9c0.9,2.1,3,3.3,5.1,3.3
	C231.3,149,232.2,148.8,232.9,148.5L232.9,148.5z"/>
<path class="st0" d="M175,229.2l33.1-30.6l17.6,29.3c1.6,2.7,5.1,3.6,7.8,1.9c2.7-1.6,3.6-5.1,1.9-7.8l-21.2-35.3
	c-0.9-1.5-2.4-2.4-4.1-2.7c-1.7-0.2-3.4,0.3-4.6,1.4l-31.1,28.8l-24.9-101c-0.6-2.2-2.4-3.9-4.7-4.2c-2.3-0.3-4.5,0.7-5.7,2.7
	l-50.5,84l-27.8-63.5c-0.8-2-2.7-3.3-4.9-3.4c-2.1-0.1-4.1,0.9-5.2,2.8L10,201c-1.6,2.7-0.7,6.2,2,7.7c2.7,1.6,6.2,0.7,7.8-2
	L54.9,147l27.7,63.4c0.8,1.9,2.7,3.2,4.8,3.4c2.1,0.1,4.1-0.9,5.2-2.7l49.1-81.6l23.9,97c0.5,1.9,2,3.5,3.9,4.1
	c0.5,0.2,1.1,0.2,1.6,0.2C172.6,230.7,173.9,230.2,175,229.2L175,229.2z"/>
</svg>
