<?xml version="1.0" encoding="UTF-8"?><svg id="Ebene_1" xmlns="http://www.w3.org/2000/svg" viewBox="0 0 240 240"><defs><style>.cls-1{fill:#1d1d1b;}</style></defs><path class="cls-1" d="M81,86H41c-2.76,0-5-2.24-5-5V41c0-2.76,2.24-5,5-5h40c2.76,0,5,2.24,5,5v40c0,2.76-2.24,5-5,5Zm-35-10h30v-30h-30v30Zm94,10h-40c-2.76,0-5-2.24-5-5V41c0-2.76,2.24-5,5-5h40c2.76,0,5,2.24,5,5v40c0,2.76-2.24,5-5,5Zm-35-10h30v-30h-30v30Zm55.3,11.23c-2.62,0-4.82-2.04-4.99-4.68l-2.53-39.92c-.17-2.76,1.92-5.13,4.67-5.31l39.92-2.53c2.75-.18,5.13,1.92,5.31,4.67l2.53,39.92c.17,2.76-1.92,5.13-4.67,5.31l-39.92,2.53c-.11,0-.21,.01-.32,.01Zm2.78-40.25l1.9,29.94,29.94-1.9-1.9-29.94-29.94,1.9ZM43.94,147.57c-2.46,0-4.6-1.81-4.95-4.31l-5.51-39.62c-.38-2.74,1.53-5.26,4.26-5.64l39.62-5.51c1.31-.18,2.64,.16,3.7,.96,1.06,.8,1.75,1.99,1.94,3.3l5.51,39.62c.38,2.73-1.53,5.26-4.26,5.64l-39.62,5.51c-.23,.03-.47,.05-.69,.05Zm.14-40.36l4.13,29.71,29.71-4.13-4.13-29.71-29.71,4.13Zm95.92,37.79h-40c-2.76,0-5-2.24-5-5v-40c0-2.76,2.24-5,5-5h40c2.76,0,5,2.24,5,5v40c0,2.76-2.24,5-5,5Zm-35-10h30v-30h-30v30Zm86.62,15.31c-.53,0-1.06-.08-1.59-.26l-37.93-12.69c-2.62-.88-4.03-3.71-3.16-6.33l12.69-37.93c.88-2.62,3.71-4.03,6.33-3.16l37.93,12.69c2.62,.88,4.03,3.71,3.16,6.33l-12.69,37.93c-.7,2.09-2.65,3.42-4.74,3.42Zm-31.61-20.85l28.45,9.52,9.52-28.45-28.45-9.52-9.52,28.45Zm-79.02,74.53H41c-2.76,0-5-2.24-5-5v-40c0-2.76,2.24-5,5-5h40c2.76,0,5,2.24,5,5v40c0,2.76-2.24,5-5,5Zm-35-10h30v-30h-30v30Zm94,10h-40c-2.76,0-5-2.24-5-5v-40c0-2.76,2.24-5,5-5h40c2.76,0,5,2.24,5,5v40c0,2.76-2.24,5-5,5Zm-35-10h30v-30h-30v30Zm91.93,11.88c-.17,0-.33,0-.5-.02l-39.8-3.95c-2.75-.27-4.75-2.72-4.48-5.47l3.95-39.8c.27-2.75,2.72-4.75,5.47-4.48l39.8,3.95c2.75,.27,4.75,2.72,4.48,5.47l-3.95,39.8c-.26,2.58-2.43,4.51-4.97,4.51Zm-34.34-13.43l29.85,2.96,2.96-29.85-29.85-2.96-2.96,29.85Z"/></svg>