<?xml version="1.0" encoding="UTF-8"?><svg id="Ebene_1" xmlns="http://www.w3.org/2000/svg" viewBox="0 0 240 240"><defs><style>.cls-1{fill:#fff;}</style></defs><path class="cls-1" d="M40.71,204c-.42,0-.85-.07-1.27-.21-2.09-.7-3.22-2.97-2.52-5.06l13.34-39.74-11.5-5.55c-1.46-.71-2.36-2.23-2.25-3.85,.1-1.62,1.17-3.02,2.71-3.54l17.36-5.88,9.84-29.3-27.84-15.26c-1.6-.88-2.41-2.73-1.95-4.5s2.05-3.01,3.88-3.01h33.56l1.17-3.48L37.67,46.93c-1.31-1.31-1.54-3.35-.57-4.92,.97-1.58,2.9-2.28,4.66-1.7l43.53,14.36,3.97-11.83c.55-1.63,2.07-2.73,3.79-2.73h105.96c1.07,0,2.09,.43,2.84,1.18,.75,.76,1.17,1.78,1.16,2.85l-.41,51.2c.07,.3,.11,.62,.12,.94,0,.35-.04,.7-.13,1.03l-.8,100.21c-.01,1.85-1.29,3.45-3.1,3.86-1.8,.42-3.66-.45-4.48-2.11l-41.61-83.16-16.14,5.46-4.36,8.78,16.58,16.65c1.4,1.41,1.56,3.64,.36,5.23-1.2,1.59-3.38,2.06-5.12,1.11l-18.27-10.01-9.45,19.03,31.29,34.97c1.27,1.42,1.36,3.55,.21,5.07-1.15,1.53-3.21,2.03-4.93,1.2l-37.96-18.31-8.19,16.48c-.83,1.66-2.69,2.54-4.5,2.11-1.81-.42-3.09-2.04-3.09-3.89v-22.31l-31.52-15.2-13.02,38.79c-.56,1.67-2.12,2.73-3.79,2.73Zm67.66-25.87l19.71,9.5-15.71-17.56-4,8.05Zm-11.33,3.42v1.4l.56-1.13-.56-.27Zm63.2-68.02l33.67,67.29,.63-78.89-34.29,11.61Zm-63.2,59.14l4.12,1.99,5.46-11-9.58-10.71v19.72Zm-36.96-17.82l28.96,13.97v-31.18l-26.15,8.85-2.81,8.37Zm36.96-13.9l13.41,14.99,8.17-16.46-13.39-7.34-8.2,2.77v6.03Zm-45.99,9.54l1.77,.85,.55-1.64-2.32,.79Zm22.49-35.71l-7.45,22.18,22.95-7.77v-5.91l-15.5-8.5Zm41.99,13.89l6.66,3.65,.18-.36-4.17-4.19-2.67,.9Zm-18.49-10.13l8.96,4.91,5.9-2-14.86-14.92v12Zm0-23.34l23.31,23.39,10.4-3.52,11.5-23.16c.67-1.36,2.06-2.22,3.58-2.22h0c1.51,0,2.9,.86,3.58,2.21l7.21,14.42,29.45-9.97-95.75-31.58-5.95,17.73,5.6,5.62h3.06c2.21,0,4,1.79,4,4v3.09Zm-20.92,11.87l12.92,7.08v-15.65l-2.39-2.4h-6.85l-3.68,10.96Zm69.73-4.42l-4.36,8.78,7.49-2.53-3.13-6.25Zm-89.74-6.55l12.88,7.06,2.37-7.06h-15.25Zm36.76-38.93l101.75,33.56,.34-42.62H95.92l-3.04,9.06Zm-37.72-4.02l22.91,22.99,4.67-13.9-27.57-9.09Z"/></svg>