<?xml version="1.0" encoding="utf-8"?>
<!-- Generator: Adobe Illustrator 27.1.1, SVG Export Plug-In . SVG Version: 6.00 Build 0)  -->
<svg version="1.1" id="Ebene_1" xmlns="http://www.w3.org/2000/svg" xmlns:xlink="http://www.w3.org/1999/xlink" x="0px" y="0px"
	 viewBox="0 0 240 240" style="enable-background:new 0 0 240 240;" xml:space="preserve">
<style type="text/css">
	.st0{fill:#FFFFFF;}
</style>
<path class="st0" d="M230,15c0-3-2.4-5.4-5.4-5.4c-3,0-5.4,2.4-5.4,5.4v45.8l-22.3-45.6c-0.9-1.8-2.7-3-4.7-3c-2,0-3.9,1-4.9,2.8
	L161,63.4V15.6c0-2.5-1.7-4.6-4.1-5.2c-2.4-0.6-4.9,0.5-6.1,2.6l-31.8,57.8L88.9,13.1c-1.1-2.2-3.7-3.3-6.1-2.7
	c-2.4,0.6-4.1,2.8-4.1,5.2v45.8L56.4,15.8c-0.9-1.8-2.7-3-4.7-3c-2,0-3.9,1.1-4.9,2.8L21.1,63.4V13.5c0-3-2.4-5.4-5.4-5.4
	s-5.4,2.4-5.4,5.4v71.3c0,0,0,0.1,0,0.1c0,0,0,0.1,0,0.1v71.3c0,0,0,0.1,0,0.1c0,0,0,0.1,0,0.1v71.3c0,2.5,1.7,4.6,4.1,5.2
	c2.4,0.6,4.9-0.5,6.1-2.7l30.9-57.3L79.3,230c0.9,1.9,2.8,3,4.8,3c0.4,0,0.8,0,1.2-0.1c2.4-0.6,4.2-2.8,4.2-5.3v-47.2l24.7,47.2
	c0.9,1.8,2.7,2.9,4.7,2.9c2,0,3.8-1.1,4.8-2.8l26.5-48.2v48c0,2.5,1.7,4.6,4.1,5.2c2.4,0.6,4.9-0.5,6.1-2.7l31.4-57.8l27.9,57.2
	c1.1,2.3,3.6,3.5,6.1,2.9c2.4-0.6,4.2-2.8,4.2-5.3v-69.2c0-0.4,0-0.8-0.1-1.1c0.1-0.4,0.1-0.7,0.1-1.1V86.4c0-0.4,0-0.8-0.1-1.1
	c0.1-0.4,0.1-0.7,0.1-1.1L230,15L230,15z M191.8,29.4l27.5,56.2c0,0.3-0.1,0.5-0.1,0.8v45.8l-22.3-45.6c-0.9-1.8-2.7-3-4.7-3
	c-2,0-3.9,1-4.9,2.8L161,134.8V87c0-0.3,0-0.6-0.1-0.8L191.8,29.4L191.8,29.4z M89.5,37.5l24.7,47.2c0.9,1.8,2.7,2.9,4.7,2.9
	c2,0,3.8-1.1,4.8-2.8l26.5-48.2v48c0,0.3,0,0.6,0.1,0.8l-31.2,56.7L89.4,85.5c0-0.2,0.1-0.5,0.1-0.8C89.5,84.8,89.5,37.5,89.5,37.5z
	 M51.3,30l27.4,56.2c0,0.3-0.1,0.5-0.1,0.8v45.8L56.4,87.2c-0.9-1.8-2.7-3-4.7-3c-2,0-3.9,1.1-4.9,2.8l-25.7,47.8V86.1L51.3,30
	L51.3,30z M78.7,204.2l-22.3-45.6c-0.9-1.8-2.7-3-4.7-3c-2,0-3.9,1.1-4.9,2.8l-25.7,47.8v-48.6l30.3-56.2l27.4,56.2
	c0,0.3-0.1,0.5-0.1,0.8L78.7,204.2L78.7,204.2z M119.1,213.6l-29.7-56.7c0-0.2,0.1-0.5,0.1-0.8v-47.2l24.7,47.2
	c0.9,1.8,2.7,2.9,4.7,2.9c2,0,3.8-1.1,4.8-2.8l26.5-48.2v48c0,0.3,0,0.6,0.1,0.8L119.1,213.6L119.1,213.6z M219.2,203.7l-22.3-45.6
	c-0.9-1.8-2.7-3-4.7-3c-2,0-3.9,1-4.9,2.8L161,206.2v-47.8c0-0.3,0-0.6-0.1-0.8l30.8-56.7l27.5,56.2c0,0.3-0.1,0.5-0.1,0.8V203.7
	L219.2,203.7z"/>
</svg>
