<?xml version="1.0" encoding="UTF-8"?><svg id="Ebene_1" xmlns="http://www.w3.org/2000/svg" viewBox="0 0 240 240"><path d="M194,46V194H46V46H194m4.99-10H41.01c-2.77,0-5.01,2.24-5.01,5.01V198.99c0,2.77,2.24,5.01,5.01,5.01H198.99c2.77,0,5.01-2.24,5.01-5.01V41.01c0-2.77-2.24-5.01-5.01-5.01h0Z"/><path d="M167.27,72.73v94.55H72.73V72.73h94.55m4.99-10H67.74c-2.77,0-5.01,2.24-5.01,5.01v104.53c0,2.77,2.24,5.01,5.01,5.01h104.53c2.77,0,5.01-2.24,5.01-5.01V67.74c0-2.77-2.24-5.01-5.01-5.01h0Z"/><path d="M141.94,98.06v43.87h-43.87v-43.87h43.87m4.99-10h-53.85c-2.77,0-5.01,2.24-5.01,5.01v53.85c0,2.77,2.24,5.01,5.01,5.01h53.85c2.77,0,5.01-2.24,5.01-5.01v-53.85c0-2.77-2.24-5.01-5.01-5.01h0Z"/></svg>