<?xml version="1.0" encoding="UTF-8"?><svg id="Ebene_1" xmlns="http://www.w3.org/2000/svg" viewBox="0 0 240 240"><defs><style>.cls-1{fill:#1d1d1b;}</style></defs><path class="cls-1" d="M199,36H40c-2.76,0-5,2.24-5,5V200c0,2.76,2.24,5,5,5H199c2.76,0,5-2.24,5-5V41c0-2.76-2.24-5-5-5Zm-101.5,106v-44h44v44h-44Zm44,10v43h-44v-43h44ZM45,98h42.5v44H45v-44Zm52.5-10V46h44v42h-44Zm54,10h42.5v44h-42.5v-44Zm42.5-10h-42.5V46h42.5v42ZM87.5,46v42H45V46h42.5Zm-42.5,106h42.5v43H45v-43Zm106.5,43v-43h42.5v43h-42.5Z"/></svg>