<?xml version="1.0" encoding="utf-8"?>
<!-- Generator: Adobe Illustrator 27.1.1, SVG Export Plug-In . SVG Version: 6.00 Build 0)  -->
<svg version="1.1" id="Ebene_1" xmlns="http://www.w3.org/2000/svg" xmlns:xlink="http://www.w3.org/1999/xlink" x="0px" y="0px"
	 viewBox="0 0 240 240" style="enable-background:new 0 0 240 240;" xml:space="preserve">
<style type="text/css">
	.st0{fill:#FFFFFF;}
</style>
<path class="st0" d="M206.6,90.9L237,38.3L181.3,6.1L155,51.7L136.4,7.9L77.8,32.7V18.2H13.5v64.3h7.7L7,144.2l62.7,14.5L84.1,96
	L25.8,82.5h52.1V34.7l22.7,53.5H86.8v64.3h64.3v-15.3l52.3,22.2l-34.5-8l-14.5,62.7l62.7,14.5l14.5-62.7l-21-4.9l24.6-58.1
	L206.6,90.9L206.6,90.9z M151.1,136.5V88.2h-39.3l47.8-20.3l19.8,11.5l-3.5-1.5L151.1,136.5L151.1,136.5z M149.2,155.7l4.5,64.2
	l-64.2,4.5l-3.8-53.9l-19.5,60.1L5,210.7l19.9-61.2l60.7,19.7l-0.6-9L149.2,155.7L149.2,155.7z"/>
</svg>
