<?xml version="1.0" encoding="UTF-8"?><svg id="Ebene_1" xmlns="http://www.w3.org/2000/svg" viewBox="0 0 240 240"><defs><style>.cls-1{fill:#1d1d1b;}</style></defs><path class="cls-1" d="M85.54,39.8c-.55-2.23-2.55-3.8-4.85-3.8s-4.3,1.57-4.85,3.8L36.52,198.8c-.66,2.68,.97,5.39,3.65,6.05,2.69,.67,5.39-.97,6.05-3.65l13.85-56.01c.23,.03,.45,.07,.68,.07h40.56l13.83,55.94c.56,2.28,2.6,3.8,4.85,3.8,.4,0,.8-.05,1.2-.15,2.68-.66,4.32-3.37,3.65-6.05L85.54,39.8Zm-23.01,95.46l18.16-73.43,18.16,73.43H62.53Zm115.37-24.86c11.73-6.98,19.6-19.79,19.6-34.4,0-22.06-17.94-40-40-40h-16.5c-2.76,0-5,2.24-5,5V200c0,2.76,2.24,5,5,5h16.5c27.29,0,49.5-22.21,49.5-49.5,0-20.03-11.96-37.31-29.1-45.1Zm-20.4-64.4c16.54,0,30,13.46,30,30s-13.46,30-30,30c-.53,0-1.03,.1-1.51,.26h-9.99V46h11.5Zm0,149h-11.5V116.26h14c.33,0,.64-.04,.95-.1,20.17,1.76,36.05,18.72,36.05,39.34,0,21.78-17.72,39.5-39.5,39.5Z"/></svg>