<?xml version="1.0" encoding="UTF-8"?><svg id="Ebene_1" xmlns="http://www.w3.org/2000/svg" viewBox="0 0 240 240"><defs><style>.cls-1{fill:#1d1d1b;}</style></defs><path class="cls-1" d="M81,86H41c-2.76,0-5-2.24-5-5V41c0-2.76,2.24-5,5-5h40c2.76,0,5,2.24,5,5v40c0,2.76-2.24,5-5,5Zm-35-10h30v-30h-30v30Z"/><path class="cls-1" d="M199,86h-40c-2.76,0-5-2.24-5-5V41c0-2.76,2.24-5,5-5h40c2.76,0,5,2.24,5,5v40c0,2.76-2.24,5-5,5Zm-35-10h30v-30h-30v30Z"/><path class="cls-1" d="M81,204H41c-2.76,0-5-2.24-5-5v-40c0-2.76,2.24-5,5-5h40c2.76,0,5,2.24,5,5v40c0,2.76-2.24,5-5,5Zm-35-10h30v-30h-30v30Z"/><path class="cls-1" d="M199,204h-40c-2.76,0-5-2.24-5-5v-40c0-2.76,2.24-5,5-5h40c2.76,0,5,2.24,5,5v40c0,2.76-2.24,5-5,5Zm-35-10h30v-30h-30v30Z"/></svg>