<?xml version="1.0" encoding="UTF-8"?><svg id="Ebene_1" xmlns="http://www.w3.org/2000/svg" viewBox="0 0 240 240"><defs><style>.cls-1{fill:#fff;}</style></defs><path class="cls-1" d="M110.98,202.15H43.32c-2.21,0-4-1.79-4-4v-67.66c0-2.21,1.79-4,4-4H110.98c2.21,0,4,1.79,4,4v67.66c0,2.21-1.79,4-4,4Zm-63.66-8h59.66v-59.66H47.32v59.66Zm46.75-8.92H60.23c-2.21,0-4-1.79-4-4v-33.83c0-2.21,1.79-4,4-4h33.83c2.21,0,4,1.79,4,4v33.83c0,2.21-1.79,4-4,4Zm-29.83-8h25.83v-25.83h-25.83v25.83Zm46.99-61.84H43.56c-2.21,0-4-1.79-4-4V43.74c0-2.21,1.79-4,4-4H111.22c2.21,0,4,1.79,4,4V111.4c0,2.21-1.79,4-4,4Zm-63.66-8h59.66V47.74H47.56v59.66Zm46.75-8.92H60.47c-2.21,0-4-1.79-4-4V60.65c0-2.21,1.79-4,4-4h33.83c2.21,0,4,1.79,4,4v33.83c0,2.21-1.79,4-4,4Zm-29.83-8h25.83v-25.83h-25.83v25.83Zm132.04,111.18h-67.66c-2.21,0-4-1.79-4-4v-67.66c0-2.21,1.79-4,4-4h67.66c2.21,0,4,1.79,4,4v67.66c0,2.21-1.79,4-4,4Zm-63.66-8h59.66v-59.66h-59.66v59.66Zm46.26-8.43h-33.83c-2.21,0-4-1.79-4-4v-33.83c0-2.21,1.79-4,4-4h33.83c2.21,0,4,1.79,4,4v33.83c0,2.21-1.79,4-4,4Zm-29.83-8h25.83v-25.83h-25.83v25.83Zm47.71-62.08h-67.66c-2.21,0-4-1.79-4-4V43.5c0-2.21,1.79-4,4-4h67.66c2.21,0,4,1.79,4,4V111.16c0,2.21-1.79,4-4,4Zm-63.66-8h59.66V47.5h-59.66v59.66Zm46.75-8.92h-33.83c-2.21,0-4-1.79-4-4V60.41c0-2.21,1.79-4,4-4h33.83c2.21,0,4,1.79,4,4v33.83c0,2.21-1.79,4-4,4Zm-29.83-8h25.83v-25.83h-25.83v25.83Z"/></svg>