<?xml version="1.0" encoding="UTF-8"?><svg id="Ebene_1" xmlns="http://www.w3.org/2000/svg" viewBox="0 0 240 240"><defs><style>.cls-1{fill:#fff;}</style></defs><path class="cls-1" d="M191.38,109.78c-10.87-40.15-52.34-63.99-92.5-53.18l-.02-.15,31.09-26.36c2.77-2.35,3.12-6.51,.76-9.28-2.35-2.77-6.51-3.12-9.28-.76l-42.68,36.18c-1.39,1.18-2.23,2.88-2.32,4.69-.09,1.82,.58,3.59,1.84,4.9l38.86,40.25c.58,.61,1.26,1.07,1.98,1.41,2.39,1.1,5.32,.7,7.33-1.24,2.62-2.53,2.69-6.69,.16-9.31l-25.64-26.56c.48-.03,.97-.1,1.46-.23,32.74-8.86,66.57,10.56,75.43,43.3,8.86,32.73-10.56,66.57-43.3,75.43-15.86,4.29-32.43,2.15-46.68-6.03-14.25-8.18-24.46-21.41-28.75-37.27-1.01-3.73-4.85-5.94-8.59-4.93-3.73,1.01-5.94,4.85-4.93,8.59,5.27,19.47,17.8,35.72,35.29,45.75,11.59,6.66,24.45,10.05,37.46,10.05,6.62,0,13.28-.88,19.85-2.66,40.18-10.88,64.03-52.42,53.15-92.6Z"/></svg>