<?xml version="1.0" encoding="utf-8"?>
<!-- Generator: Adobe Illustrator 27.0.1, SVG Export Plug-In . SVG Version: 6.00 Build 0)  -->
<svg version="1.1" id="Ebene_1" xmlns="http://www.w3.org/2000/svg" xmlns:xlink="http://www.w3.org/1999/xlink" x="0px" y="0px"
	 viewBox="0 0 240 240" style="enable-background:new 0 0 240 240;" xml:space="preserve">
<style type="text/css">
	.st0{fill:#1D1D1B;}
</style>
<path class="st0" d="M81,86H41c-2.8,0-5-2.2-5-5V41c0-2.8,2.2-5,5-5h40c2.8,0,5,2.2,5,5v40C86,83.8,83.8,86,81,86z M46,76h30V46H46
	V76z M160.3,87.2c-2.6,0-4.8-2-5-4.7l-2.5-39.9c-0.2-2.8,1.9-5.1,4.7-5.3l39.9-2.5c2.8-0.2,5.1,1.9,5.3,4.7l2.5,39.9
	c0.2,2.8-1.9,5.1-4.7,5.3l-39.9,2.5C160.5,87.2,160.4,87.2,160.3,87.2L160.3,87.2z M163.1,47l1.9,29.9l29.9-1.9L193,45.1L163.1,47z
	 M43.9,147.6c-2.5,0-4.6-1.8-5-4.3l-5.5-39.6c-0.4-2.7,1.5-5.3,4.3-5.6l39.6-5.5c1.3-0.2,2.6,0.2,3.7,1c1.1,0.8,1.8,2,1.9,3.3
	l5.5,39.6c0.4,2.7-1.5,5.3-4.3,5.6l-39.6,5.5C44.4,147.6,44.2,147.6,43.9,147.6z M44.1,107.2l4.1,29.7l29.7-4.1l-4.1-29.7
	C73.8,103.1,44.1,107.2,44.1,107.2z M140,145h-40c-2.8,0-5-2.2-5-5v-40c0-2.8,2.2-5,5-5h40c2.8,0,5,2.2,5,5v40
	C145,142.8,142.8,145,140,145z M105,135h30v-30h-30V135z M191.6,150.3c-0.5,0-1.1-0.1-1.6-0.3l-37.9-12.7c-2.6-0.9-4-3.7-3.2-6.3
	l12.7-37.9c0.9-2.6,3.7-4,6.3-3.2l37.9,12.7c2.6,0.9,4,3.7,3.2,6.3l-12.7,37.9C195.7,149,193.7,150.3,191.6,150.3L191.6,150.3z
	 M160,129.5l28.4,9.5l9.5-28.4l-28.4-9.5L160,129.5z M81,204H41c-2.8,0-5-2.2-5-5v-40c0-2.8,2.2-5,5-5h40c2.8,0,5,2.2,5,5v40
	C86,201.7,83.8,204,81,204L81,204z M46,194h30v-30H46V194z M140,204h-40c-2.8,0-5-2.2-5-5v-40c0-2.8,2.2-5,5-5h40c2.8,0,5,2.2,5,5
	v40C145,201.7,142.7,204,140,204z M105,194h30v-30h-30V194z"/>
</svg>
