<?xml version="1.0" encoding="utf-8"?>
<!-- Generator: Adobe Illustrator 27.3.1, SVG Export Plug-In . SVG Version: 6.00 Build 0)  -->
<svg version="1.1" id="Ebene_1" xmlns="http://www.w3.org/2000/svg" xmlns:xlink="http://www.w3.org/1999/xlink" x="0px" y="0px"
	 viewBox="0 0 240 240" style="enable-background:new 0 0 240 240;" xml:space="preserve">
<style type="text/css">
	.st0{fill:#FFFFFF;}
</style>
<path class="st0" d="M229.6,70.1H110c-5.5,0-10-4.5-10-10v0c0-5.5,4.5-10,10-10h119.6c5.5,0,10,4.5,10,10v0
	C239.6,65.7,235.1,70.1,229.6,70.1z"/>
<path class="st0" d="M229.6,129.9H110c-5.5,0-10-4.5-10-10v0c0-5.5,4.5-10,10-10h119.6c5.5,0,10,4.5,10,10v0
	C239.6,125.4,235.1,129.9,229.6,129.9z"/>
<path class="st0" d="M229.6,190H110c-5.5,0-10-4.5-10-10v0c0-5.5,4.5-10,10-10h119.6c5.5,0,10,4.5,10,10v0
	C239.6,185.5,235.1,190,229.6,190z"/>
</svg>
