<?xml version="1.0" encoding="UTF-8"?><svg id="Ebene_1" xmlns="http://www.w3.org/2000/svg" viewBox="0 0 240 240"><defs><style>.cls-1{fill:#fff;}</style></defs><path class="cls-1" d="M201,42.89c0-2.21-1.79-4-4-4s-4,1.79-4,4v33.94l-16.5-33.78c-.66-1.35-2.01-2.21-3.51-2.24-1.47-.02-2.89,.77-3.6,2.09l-19.44,35.79V43.29c0-1.83-1.24-3.42-3-3.87-1.76-.45-3.62,.35-4.5,1.95l-23.54,42.82-22.37-42.74c-.85-1.63-2.71-2.47-4.5-2.03-1.79,.44-3.04,2.04-3.04,3.88v33.94l-16.5-33.78c-.66-1.35-2.01-2.21-3.51-2.24-1.48-.02-2.89,.78-3.6,2.1l-19.05,35.36V41.78c0-2.21-1.79-4-4-4s-4,1.79-4,4v52.76s0,.04,0,.06c0,.02,0,.04,0,.05v52.76s0,.04,0,.06c0,.02,0,.04,0,.05v52.76c0,1.83,1.25,3.43,3.02,3.88,1.78,.45,3.63-.37,4.5-1.98l22.88-42.46,20.68,42.32c.68,1.4,2.09,2.24,3.59,2.24,.3,0,.6-.03,.9-.1,1.81-.42,3.1-2.04,3.1-3.9v-34.97l18.28,34.93c.68,1.31,2.03,2.13,3.5,2.15,1.47,.02,2.84-.78,3.55-2.07l19.63-35.7v35.56c0,1.83,1.24,3.43,3.01,3.88,1.77,.45,3.63-.36,4.5-1.97l23.25-42.81,20.69,42.35c.82,1.67,2.68,2.56,4.5,2.14,1.81-.42,3.1-2.04,3.1-3.9v-51.24c0-.29-.03-.56-.09-.83,.05-.26,.09-.53,.09-.8v-51.24c0-.29-.03-.56-.09-.83,.05-.26,.09-.53,.09-.8V42.89Zm-28.28,10.64l20.34,41.64c-.03,.19-.06,.39-.06,.59v33.94l-16.5-33.78c-.66-1.35-2.01-2.21-3.51-2.24-1.47-.03-2.89,.77-3.6,2.09l-19.44,35.79v-35.39c0-.21-.02-.42-.05-.62l22.82-42.01Zm-75.73,6.03l18.28,34.93c.68,1.31,2.03,2.13,3.5,2.15,1.47,.01,2.84-.78,3.55-2.07l19.63-35.7v35.56c0,.21,.02,.41,.05,.61l-23.1,42.01-21.96-41.96c.03-.18,.05-.37,.05-.56V59.56Zm-28.27-5.6l20.32,41.6c-.03,.2-.05,.4-.05,.6v33.94l-16.5-33.78c-.66-1.35-2.01-2.21-3.51-2.24-1.47-.01-2.89,.78-3.6,2.1l-19.05,35.36v-36l22.4-41.58Zm20.27,129.01l-16.5-33.78c-.66-1.35-2.01-2.21-3.51-2.24-1.48-.02-2.89,.78-3.6,2.1l-19.05,35.36v-36l22.4-41.58,20.32,41.6c-.03,.2-.05,.4-.05,.6v33.94Zm29.91,6.95l-21.96-41.96c.03-.18,.05-.37,.05-.56v-34.97l18.28,34.93c.68,1.31,2.03,2.13,3.5,2.15,1.47,.01,2.84-.78,3.55-2.07l19.63-35.7v35.56c0,.21,.02,.41,.05,.61l-23.1,42.01Zm74.1-7.35l-16.5-33.78c-.66-1.35-2.01-2.21-3.51-2.24-1.47-.03-2.89,.77-3.6,2.09l-19.44,35.79v-35.39c0-.21-.02-.42-.05-.62l22.82-42.01,20.34,41.64c-.03,.19-.06,.39-.06,.59v33.94Z"/></svg>