<?xml version="1.0" encoding="UTF-8"?><svg id="Ebene_1" xmlns="http://www.w3.org/2000/svg" viewBox="0 0 240 240"><defs><style>.cls-1{fill:#1d1d1b;}</style></defs><path class="cls-1" d="M178.27,99.71c1.12-4.56,1.73-9.31,1.73-14.21,0-32.81-26.69-59.5-59.5-59.5s-59.5,26.69-59.5,59.5c0,4.8,.59,9.47,1.67,13.94-24.63,7.28-42.67,30.1-42.67,57.06,0,32.81,26.69,59.5,59.5,59.5,15.63,0,29.87-6.07,40.5-15.97,10.63,9.9,24.87,15.97,40.5,15.97,32.81,0,59.5-26.69,59.5-59.5,0-26.62-17.57-49.21-41.73-56.79Zm-107.27-14.21c0-27.29,22.21-49.5,49.5-49.5s49.5,22.21,49.5,49.5c0,4.16-.52,8.19-1.49,12.05-2.62-.35-5.29-.55-8.01-.55-15.63,0-29.87,6.07-40.5,15.97-10.63-9.9-24.87-15.97-40.5-15.97-2.38,0-4.73,.16-7.04,.43-.95-3.82-1.46-7.82-1.46-11.93Zm58,71c0,10.57-3.34,20.36-9,28.41-5.66-8.05-9-17.84-9-28.41,0-4.16,.52-8.19,1.49-12.05,2.62,.35,5.29,.55,8.01,.55,2.38,0,4.73-.16,7.04-.43,.95,3.82,1.46,7.82,1.46,11.93Zm-8.5-21.5c-1.51,0-3-.08-4.47-.21,1.15-2.34,2.48-4.58,3.97-6.7,1.51,2.14,2.85,4.4,4.01,6.77-1.16,.08-2.33,.14-3.51,.14Zm-14.57-2.19c-13.16-4.06-23.99-13.47-29.94-25.67,1.16-.08,2.33-.14,3.51-.14,13.05,0,24.92,5.08,33.78,13.36-2.93,3.81-5.4,7.99-7.34,12.45Zm20.79-12.45c8.85-8.28,20.73-13.36,33.78-13.36,1.51,0,3,.08,4.47,.21-6.1,12.44-17.27,21.95-30.79,25.85-1.96-4.55-4.48-8.81-7.46-12.7ZM30,156.5c0-22.55,15.16-41.61,35.82-47.56,6.81,15.83,20.3,28.14,36.91,33.35-1.12,4.56-1.73,9.31-1.73,14.21,0,13.58,4.59,26.11,12.28,36.14-8.85,8.28-20.73,13.36-33.78,13.36-27.29,0-49.5-22.21-49.5-49.5Zm130.5,49.5c-13.05,0-24.92-5.08-33.78-13.36,7.69-10.03,12.28-22.55,12.28-36.14,0-4.8-.59-9.47-1.67-13.94,16.94-5.01,30.76-17.36,37.73-33.37,20.21,6.23,34.93,25.08,34.93,47.31,0,27.29-22.21,49.5-49.5,49.5Z"/></svg>