<?xml version="1.0" encoding="utf-8"?>
<!-- Generator: Adobe Illustrator 27.3.1, SVG Export Plug-In . SVG Version: 6.00 Build 0)  -->
<svg version="1.1" id="Ebene_1" xmlns="http://www.w3.org/2000/svg" xmlns:xlink="http://www.w3.org/1999/xlink" x="0px" y="0px"
	 viewBox="0 0 240 240" style="enable-background:new 0 0 240 240;" xml:space="preserve">
<style type="text/css">
	.st0{fill:#FFFFFF;}
</style>
<g>
	<path class="st0" d="M157.2,76.9c12.5-2.3,19.5,1.4,24.2,13c6.1-1.9,11.9-1.7,17.3,2c3.4,2.3,5.9,5.3,7.1,9.4
		c0.3,1.1,0.8,1.2,1.8,0.9c11.9-3.7,24,4.6,24.2,17.1c0.2,18.4,0.4,36.9-0.2,55.3c-0.4,12.7-5,24.4-12.4,34.8
		c-10.7,15-21.2,24.3-39.1,27.7c-21.8,4.1-39.4-1.7-54.8-17.8c-7.1-7.5-13.3-15.8-19.9-23.7c-12.4-15-24.9-30-37.3-45
		c-8.1-9.8-12-24.7-2.1-32.6c5.3-4.2,11.3-4.7,17.8-3.8c5.6,0.8,10.5,5.7,14.9,9.2c3.2,2.5,6.2,5.2,9.4,7.7c1.1,0.9,2.3,1.8,3.4,2.6
		c1.7,1.2,4.2,1.1,6,0c1.9-1,2.2-4.9,2.2-7.2c0-26.3-0.1-52.6,0-79c0-2.4,0.1-4.9,0.6-7.3c2.2-8.9,10-14.4,19.3-14
		c8.5,0.4,15.7,7.1,17.1,16c0.2,1.6,0.4,3.2,0.4,4.8c0,9.7,0,19.3,0,29C157.1,76.2,157.1,76.5,157.2,76.9z M144.8,89.6
		c0.1,0,0.1,0,0.2,0c0-13.8,0-27.7,0-41.5c0-1.4-0.1-2.9-0.3-4.3c-0.6-3.3-2.5-5.8-7.8-5.2c-2.5,0.3-4.8,2.9-5,6
		c-0.1,1.3,0,2.6,0,3.8c0,26,0,52,0,78c0,1.2-0.1,2.5-0.3,3.6c-0.2,17.4-17.1,21.3-28.1,12.6c-3.7-2.9-7.3-5.8-10.8-8.9
		c-3.4-3-7.2-7.3-11.6-8c-4.9-0.7-6.3,0.4-8,5.1c-1.7,4.9,2.8,10,5.8,13.7c9.4,11.2,18.7,22.5,28,33.7c8.8,10.5,17.3,21.3,26.4,31.6
		c11,12.6,23.8,17.6,40.3,15.9c11.9-1.2,18.5-5.9,27.4-14c10.9-9.7,17.2-21.9,18.5-36.5c0.5-4.9,0.3-9.9,0.3-14.8
		c0-12.8,0-25.5,0-38.3c0-1.8-0.2-3.7-0.8-5.4c-0.9-2.6-3.7-3.9-6.7-3.5c-2.4,0.3-4.9,2.5-5.2,5c-0.3,2.4-0.1,4.9-0.2,7.3
		c0,2.5,0.1,5.1-0.2,7.6c-0.4,3.3-3.5,5.3-6.8,4.8c-3.3-0.5-5.4-3.2-5.5-6.9c0-8.1,0-16.1,0-24.2c0-3.6-1.9-5.7-5.6-6.2
		c-2.8-0.4-5.9,1.7-6.7,4.6c-0.3,1.2-0.3,2.5-0.3,3.8c0,7.7,0,15.4,0,23.2c0,3.4-2.4,5.6-5.7,5.7c-3.3,0.1-5.6-1.7-6.1-5.1
		c-0.2-1.2-0.2-2.4-0.2-3.7c0-11.4,0-22.8,0-34.2c0-4-2.9-7-6.5-7c-3.8,0-6.2,2.7-6.2,6.9c0,12.2,0,24.4,0,36.7
		c0,3.9-2.6,6.5-6.3,6.5c-3.7,0-6-2.5-6-6.5C144.8,117.7,144.8,103.6,144.8,89.6z"/>
	<path class="st0" d="M32.3,91.8c0-0.5,0.1-1.1,0.1-1.6c0-27.2-0.1-54.3-0.1-81.5c0-2,0.1-4,1.6-5.6c1.7-1.9,3.8-2.5,6.2-1.8
		c2.3,0.7,3.7,2.3,4.1,4.8c0.2,1.1,0.2,2.2,0.2,3.3c0,27.1,0,54.2,0,81.3c0,0.4,0.1,0.7,0.1,1.5c0.7-0.6,1.2-0.9,1.6-1.4
		c4.2-4.2,8.4-8.5,12.7-12.7c3.1-3,7.7-2.5,9.7,1c1.5,2.5,1.1,5.2-1.2,7.6c-6.8,6.9-13.6,13.7-20.4,20.6c-1.3,1.3-2.5,2.5-3.8,3.7
		c-3.6,3.3-6.4,3.2-9.8-0.2c-5-5-10-10-15-15c-3-3.1-6.1-6.2-9.1-9.3c-1.8-1.9-2.3-4.2-1.4-6.6c0.9-2.4,2.9-3.6,5.4-3.8
		c2-0.2,3.6,0.8,4.9,2.1c4.2,4.2,8.3,8.3,12.4,12.5c0.4,0.4,0.7,1,1,1.5C31.8,92.1,32,92,32.3,91.8z"/>
</g>
</svg>
