<?xml version="1.0" encoding="utf-8"?>
<!-- Generator: Adobe Illustrator 27.1.1, SVG Export Plug-In . SVG Version: 6.00 Build 0)  -->
<svg version="1.1" id="Ebene_1" xmlns="http://www.w3.org/2000/svg" xmlns:xlink="http://www.w3.org/1999/xlink" x="0px" y="0px"
	 viewBox="0 0 240 240" style="enable-background:new 0 0 240 240;" xml:space="preserve">
<style type="text/css">
	.st0{fill:#C94747;}
</style>
<path class="st0" d="M203.5,131.8v-11.9C202.8,74.4,165.4,38,120,38.6C74.7,38,37.2,74.4,36.5,119.9v10.6c0,0.2,0,0.5,0.1,0.7
	c0,0.2-0.1,0.5-0.1,0.7v56c0,1.9,1.6,3.5,3.5,3.5h22.7c1.9,0,3.5-1.6,3.5-3.5v-56c0-1.9-1.6-3.5-3.5-3.5H43.5l0-8.4
	c0.6-41.5,34.9-74.9,76.5-74.3c0.4,0,0.7,0,1.1,0c41.1,0,74.8,33.1,75.4,74.2v8.5h-19.2c-1.9,0-3.5,1.6-3.5,3.5v56
	c0,1.9,1.6,3.5,3.5,3.5H200c1.9,0,3.5-1.6,3.5-3.5L203.5,131.8C203.5,131.8,203.5,131.8,203.5,131.8z M59.2,184.4H43.5v-49h15.7
	V184.4z M196.5,184.4h-15.7v-49h15.7V184.4z"/>
</svg>
