<?xml version="1.0" encoding="UTF-8"?><svg id="Ebene_1" xmlns="http://www.w3.org/2000/svg" viewBox="0 0 240 240"><path d="M41.52,203.49c-2.76,0-5-2.24-5-5V40.94c0-2.76,2.24-5,5-5s5,2.24,5,5V198.49c0,2.76-2.24,5-5,5Z"/><path d="M94.12,203.49c-2.76,0-5-2.24-5-5V40.94c0-2.76,2.24-5,5-5s5,2.24,5,5V198.49c0,2.76-2.24,5-5,5Z"/><path d="M146.73,203.49c-2.76,0-5-2.24-5-5V40.94c0-2.76,2.24-5,5-5s5,2.24,5,5V198.49c0,2.76-2.24,5-5,5Z"/><path d="M199.33,203.49c-2.76,0-5-2.24-5-5V40.94c0-2.76,2.24-5,5-5s5,2.24,5,5V198.49c0,2.76-2.24,5-5,5Z"/></svg>