<?xml version="1.0" encoding="UTF-8"?><svg id="Ebene_1" xmlns="http://www.w3.org/2000/svg" viewBox="0 0 240 240"><defs><style>.cls-1{fill:#fff;}</style></defs><path class="cls-1" d="M198.68,164.63c2-.93,2.87-3.31,1.94-5.31l-13-28c-.56-1.21-1.69-2.06-3.02-2.27-1.32-.2-2.66,.26-3.56,1.25l-17.05,18.61-21.13-79.92c-.41-1.56-1.72-2.72-3.32-2.94-1.6-.23-3.17,.54-3.99,1.93l-38.01,64.25-19.88-45.81c-.6-1.37-1.91-2.3-3.4-2.4-1.5-.1-2.92,.64-3.69,1.92l-32,53c-1.14,1.89-.54,4.35,1.36,5.49,1.89,1.14,4.35,.53,5.49-1.36l27.99-46.36,19.91,45.89c.6,1.38,1.92,2.31,3.42,2.4,1.5,.1,2.93-.66,3.69-1.96l37.13-62.77,20.56,77.76c.37,1.41,1.49,2.51,2.91,2.86,1.43,.35,2.92-.1,3.91-1.18l17.95-19.58,10.48,22.56c.68,1.46,2.12,2.32,3.63,2.32,.56,0,1.14-.12,1.68-.37Z"/><path class="cls-1" d="M198.65,132.86c2.01-.91,2.9-3.28,1.99-5.3l-11-24.22c-.57-1.26-1.76-2.14-3.13-2.31-1.37-.18-2.74,.37-3.62,1.45l-12.05,14.89-21.97-82.4c-.4-1.51-1.65-2.65-3.19-2.91-1.53-.26-3.09,.39-3.98,1.68l-43.67,63.68-17.29-45.83c-.53-1.4-1.8-2.39-3.29-2.56-1.49-.17-2.95,.51-3.78,1.76l-36,54c-1.23,1.84-.73,4.32,1.11,5.55,1.84,1.23,4.32,.73,5.55-1.11l31.68-47.52,17.25,45.71c.53,1.39,1.78,2.38,3.26,2.56,1.49,.18,2.94-.48,3.78-1.71l43.08-62.82,21.76,81.59c.39,1.45,1.56,2.57,3.03,2.88,1.48,.31,3-.23,3.94-1.4l12.93-15.97,8.32,18.32c.67,1.47,2.12,2.35,3.64,2.35,.55,0,1.12-.12,1.65-.36Z"/><path class="cls-1" d="M157.72,189.94l23.39-21.66,12.46,20.74c1.14,1.89,3.59,2.51,5.49,1.37,1.89-1.14,2.51-3.6,1.37-5.49l-15-24.96c-.62-1.03-1.67-1.73-2.87-1.9-1.19-.17-2.4,.21-3.28,1.02l-22.02,20.39-17.61-71.41c-.39-1.57-1.69-2.76-3.29-3-1.6-.24-3.19,.51-4.03,1.89l-35.71,59.36-19.62-44.9c-.6-1.38-1.93-2.3-3.43-2.39-1.48-.08-2.92,.67-3.69,1.97l-28.79,49c-1.12,1.9-.48,4.36,1.42,5.47s4.36,.48,5.48-1.42l24.81-42.24,19.58,44.81c.6,1.37,1.91,2.29,3.41,2.39,1.5,.09,2.92-.65,3.69-1.93l34.71-57.7,16.92,68.6c.34,1.37,1.38,2.47,2.74,2.87,.38,.11,.76,.17,1.15,.17,.99,0,1.97-.37,2.72-1.06Z"/></svg>