<?xml version="1.0" encoding="UTF-8"?><svg id="Ebene_1" xmlns="http://www.w3.org/2000/svg" viewBox="0 0 240 240"><path d="M199,208.18H41.32c-4.14,0-7.5-3.36-7.5-7.5s3.36-7.5,7.5-7.5H199c4.14,0,7.5,3.36,7.5,7.5s-3.36,7.5-7.5,7.5Zm-14.02-103.8c-3.02-2.83-7.77-2.68-10.6,.34l-46.88,50.02V21.5c0-4.14-3.36-7.5-7.5-7.5s-7.5,3.36-7.5,7.5V154.74l-46.88-50.02c-2.83-3.02-7.58-3.18-10.6-.34-3.02,2.83-3.18,7.58-.34,10.6l59.86,63.86c1.42,1.51,3.4,2.37,5.47,2.37s4.05-.86,5.47-2.37l59.86-63.86c2.83-3.02,2.68-7.77-.34-10.6Z"/></svg>