<?xml version="1.0" encoding="UTF-8"?><svg id="Ebene_1" xmlns="http://www.w3.org/2000/svg" viewBox="0 0 240 240"><defs><style>.cls-1{fill:#fff;}</style></defs><path class="cls-1" d="M180.7,99.31l22.32-38.66-40.95-23.64-19.35,33.52-13.69-32.24-43.03,18.27v-10.71H38.71v47.3h5.65l-10.47,45.34,46.07,10.64,10.64-46.07-42.89-9.9h38.29V58l16.69,39.32h-10.11v47.3h47.3v-11.24l38.46,16.33-25.34-5.85-10.64,46.07,46.07,10.64,10.64-46.07-15.45-3.57,18.12-42.68-21.05-8.94Zm-40.81,33.57v-35.55h-28.86l35.13-14.91,14.58,8.42-2.54-1.08-18.31,43.12Zm-1.45,14.09l3.31,47.19-47.19,3.31-2.78-39.65-14.36,44.19-44.97-14.61,14.61-44.97,44.65,14.51-.47-6.65,47.19-3.31Z"/></svg>