{
    "asset" : {
        "generator" : "Khronos glTF Blender I/O v1.6.16",
        "version" : "2.0"
    },
    "scene" : 0,
    "scenes" : [
        {
            "name" : "Scene",
            "nodes" : [
                0,
                1,
                2,
                3,
                4,
                5,
                6,
                7,
                8,
                9,
                10,
                11,
                12,
                13,
                14,
                15,
                16,
                17,
                18,
                19,
                20,
                21,
                22,
                23,
                24
            ]
        }
    ],
    "nodes" : [
        {
            "mesh" : 0,
            "name" : "Votesforwomenplate - Preview",
            "rotation" : [
                -0.01300773024559021,
                0.0006498537259176373,
                0.011315591633319855,
                0.9998511672019958
            ],
            "translation" : [
                0.0020665288902819157,
                0.010282324627041817,
                -0.002063574967905879
            ]
        },
        {
            "mesh" : 0,
            "name" : "Votesforwomenplate - Preview.001",
            "rotation" : [
                -0.01284867338836193,
                -0.0013380455784499645,
                0.009625418111681938,
                0.999870240688324
            ],
            "translation" : [
                0.00035220320569351315,
                0.018321653828024864,
                -0.0034630398731678724
            ]
        },
        {
            "mesh" : 0,
            "name" : "Votesforwomenplate - Preview.002",
            "rotation" : [
                -0.009334775619208813,
                -0.0019134635804221034,
                0.008650777861475945,
                0.9999172687530518
            ],
            "translation" : [
                0.001595185836777091,
                0.025249281898140907,
                -0.003505498170852661
            ]
        },
        {
            "mesh" : 0,
            "name" : "Votesforwomenplate - Preview.003",
            "rotation" : [
                -0.011285130865871906,
                0.0020576862152665854,
                0.008920270949602127,
                0.9998944401741028
            ],
            "translation" : [
                0.0002518012188374996,
                0.03557731583714485,
                -0.00382493669167161
            ]
        },
        {
            "mesh" : 0,
            "name" : "Votesforwomenplate - Preview.004",
            "rotation" : [
                -0.009803147986531258,
                -0.00018317090871278197,
                0.014777152799069881,
                0.9998427629470825
            ],
            "translation" : [
                0.0004073923919349909,
                0.04270734265446663,
                0.00020501227118074894
            ]
        },
        {
            "mesh" : 0,
            "name" : "Votesforwomenplate - Preview.005",
            "rotation" : [
                -0.013200746849179268,
                -0.003063921583816409,
                0.008160924538969994,
                0.9998748898506165
            ],
            "translation" : [
                0.001597065245732665,
                0.04938560351729393,
                0.0014523877762258053
            ]
        },
        {
            "mesh" : 0,
            "name" : "Votesforwomenplate - Preview.006",
            "rotation" : [
                -0.010726537555456161,
                -0.0006528543890453875,
                0.00997055135667324,
                0.9998926520347595
            ],
            "translation" : [
                -0.0008737184689380229,
                0.055257558822631836,
                -0.004455098882317543
            ]
        },
        {
            "mesh" : 0,
            "name" : "Votesforwomenplate - Preview.007",
            "rotation" : [
                -0.010377167724072933,
                -0.0009378547547385097,
                0.012157240882515907,
                0.9998717904090881
            ],
            "translation" : [
                -0.0006913917604833841,
                0.06430026143789291,
                -0.0018215927993878722
            ]
        },
        {
            "mesh" : 0,
            "name" : "Votesforwomenplate - Preview.008",
            "rotation" : [
                -0.014379884116351604,
                -0.0037873878609389067,
                0.00957614928483963,
                0.9998435974121094
            ],
            "translation" : [
                -0.0004973020986653864,
                0.07212416082620621,
                -0.003030566032975912
            ]
        },
        {
            "mesh" : 0,
            "name" : "Votesforwomenplate - Preview.009",
            "rotation" : [
                -0.00955040194094181,
                -0.003158260602504015,
                0.012880497612059116,
                0.9998665452003479
            ],
            "translation" : [
                0.0007560858502984047,
                0.07949106395244598,
                -0.0016550446162000299
            ]
        },
        {
            "mesh" : 0,
            "name" : "Votesforwomenplate - Preview.010",
            "rotation" : [
                -0.009897609241306782,
                -0.004107043147087097,
                0.007964962162077427,
                0.9999109506607056
            ],
            "translation" : [
                0.0014772637514397502,
                0.08744558691978455,
                -0.0021679657511413097
            ]
        },
        {
            "mesh" : 0,
            "name" : "Votesforwomenplate - Preview.011",
            "rotation" : [
                -0.01310716848820448,
                0.0033802322577685118,
                0.009852522984147072,
                0.9998598694801331
            ],
            "translation" : [
                -0.0017591228242963552,
                0.09671004116535187,
                -0.0032574664801359177
            ]
        },
        {
            "mesh" : 0,
            "name" : "Votesforwomenplate - Preview.012",
            "rotation" : [
                -0.00958233792334795,
                -0.0009334569913335145,
                0.0144698740914464,
                0.9998489618301392
            ],
            "translation" : [
                -0.0007788812508806586,
                0.10161185264587402,
                0.0014206018531695008
            ]
        },
        {
            "mesh" : 0,
            "name" : "Votesforwomenplate - Preview.013",
            "rotation" : [
                -0.010513337329030037,
                0.0009973018895834684,
                0.012134546414017677,
                0.9998707175254822
            ],
            "translation" : [
                -0.005273106507956982,
                0.11116254329681396,
                -0.003183857537806034
            ]
        },
        {
            "mesh" : 0,
            "name" : "Votesforwomenplate - Preview.014",
            "rotation" : [
                -0.013435875065624714,
                -0.004341660998761654,
                0.009278494864702225,
                0.9998573660850525
            ],
            "translation" : [
                0.0007768319919705391,
                0.11693378537893295,
                -0.0003873188979923725
            ]
        },
        {
            "mesh" : 0,
            "name" : "Votesforwomenplate - Preview.015",
            "rotation" : [
                -0.012300635688006878,
                -0.0002998465206474066,
                0.013556093908846378,
                0.9998325109481812
            ],
            "translation" : [
                -0.004573351703584194,
                0.1267128586769104,
                -0.0006109857931733131
            ]
        },
        {
            "mesh" : 0,
            "name" : "Votesforwomenplate - Preview.016",
            "rotation" : [
                -0.0084410784766078,
                0.0029442913364619017,
                0.008559741079807281,
                0.9999235272407532
            ],
            "translation" : [
                -0.003920834045857191,
                0.13480015099048615,
                -0.0009437133558094501
            ]
        },
        {
            "mesh" : 0,
            "name" : "Votesforwomenplate - Preview.017",
            "rotation" : [
                -0.013076682575047016,
                0.0003044953045900911,
                0.010729019530117512,
                0.9998568892478943
            ],
            "translation" : [
                -0.001754789729602635,
                0.14091046154499054,
                -0.006188482046127319
            ]
        },
        {
            "mesh" : 0,
            "name" : "Votesforwomenplate - Preview.018",
            "rotation" : [
                -0.012225143611431122,
                0.0021370667964220047,
                0.00911148265004158,
                0.9998815655708313
            ],
            "translation" : [
                -0.0021202319767326117,
                0.14850462973117828,
                -0.0034547392278909683
            ]
        },
        {
            "mesh" : 0,
            "name" : "Votesforwomenplate - Preview.019",
            "rotation" : [
                -0.01315391156822443,
                0.0011845073895528913,
                0.00831502117216587,
                0.9998782277107239
            ],
            "translation" : [
                -0.003423913847655058,
                0.1560826301574707,
                -0.00021439092233777046
            ]
        },
        {
            "mesh" : 0,
            "name" : "Votesforwomenplate - Preview.020",
            "rotation" : [
                -0.012021023780107498,
                -0.0016638002125546336,
                0.011946292594075203,
                0.999855101108551
            ],
            "translation" : [
                -0.002873548772186041,
                0.16551072895526886,
                -0.004679885692894459
            ]
        },
        {
            "mesh" : 0,
            "name" : "Votesforwomenplate - Preview.021",
            "rotation" : [
                -0.00816760491579771,
                0.000618539284914732,
                0.010924474336206913,
                0.9999068975448608
            ],
            "translation" : [
                -0.005100932903587818,
                0.1718980371952057,
                -0.003740429412573576
            ]
        },
        {
            "mesh" : 0,
            "name" : "Votesforwomenplate - Preview.022",
            "rotation" : [
                -0.0130188362672925,
                -0.0005371037987060845,
                0.013706956058740616,
                0.999821126461029
            ],
            "translation" : [
                -0.00367166381329298,
                0.17981037497520447,
                -0.0007905522361397743
            ]
        },
        {
            "mesh" : 0,
            "name" : "Votesforwomenplate - Preview.023",
            "rotation" : [
                -0.01141741219907999,
                -0.0037385085597634315,
                0.009237399324774742,
                0.9998852610588074
            ],
            "translation" : [
                -0.0009560314938426018,
                0.1870284080505371,
                -0.004015980288386345
            ]
        },
        {
            "mesh" : 0,
            "name" : "Votesforwomenplate - Preview.024",
            "rotation" : [
                -0.007321855518966913,
                -0.0018690950237214565,
                0.012037839740514755,
                0.9998990893363953
            ],
            "translation" : [
                -0.003649092046543956,
                0.19639255106449127,
                0.0006157406605780125
            ]
        }
    ],
    "materials" : [
        {
            "doubleSided" : true,
            "name" : "Default OBJ",
            "pbrMetallicRoughness" : {
                "baseColorFactor" : [
                    0.800000011920929,
                    0.800000011920929,
                    0.800000011920929,
                    1
                ],
                "metallicFactor" : 0,
                "roughnessFactor" : 0.5
            }
        }
    ],
    "meshes" : [
        {
            "name" : "Votesforwomenplate - Preview.024",
            "primitives" : [
                {
                    "attributes" : {
                        "POSITION" : 0,
                        "NORMAL" : 1,
                        "TEXCOORD_0" : 2
                    },
                    "indices" : 3,
                    "material" : 0
                }
            ]
        }
    ],
    "accessors" : [
        {
            "bufferView" : 0,
            "componentType" : 5126,
            "count" : 60342,
            "max" : [
                0.10083243995904922,
                0.011308848857879639,
                0.09940843284130096
            ],
            "min" : [
                -0.09906711429357529,
                -0.01204518973827362,
                -0.10022182762622833
            ],
            "type" : "VEC3"
        },
        {
            "bufferView" : 1,
            "componentType" : 5126,
            "count" : 60342,
            "type" : "VEC3"
        },
        {
            "bufferView" : 2,
            "componentType" : 5126,
            "count" : 60342,
            "type" : "VEC2"
        },
        {
            "bufferView" : 3,
            "componentType" : 5123,
            "count" : 60426,
            "type" : "SCALAR"
        }
    ],
    "bufferViews" : [
        {
            "buffer" : 0,
            "byteLength" : 724104,
            "byteOffset" : 0
        },
        {
            "buffer" : 0,
            "byteLength" : 724104,
            "byteOffset" : 724104
        },
        {
            "buffer" : 0,
            "byteLength" : 482736,
            "byteOffset" : 1448208
        },
        {
            "buffer" : 0,
            "byteLength" : 120852,
            "byteOffset" : 1930944
        }
    ],
    "buffers" : [
        {
            "byteLength" : 2051796,
            "uri" : "data:application/octet-stream;base64,"
        }
    ]
}
