{
    "asset" : {
        "generator" : "Khronos glTF Blender I/O v1.1.46",
        "version" : "2.0"
    },
    "scene" : 0,
    "scenes" : [
        {
            "name" : "Scene",
            "nodes" : [
                0
            ]
        }
    ],
    "nodes" : [
        {
            "mesh" : 0,
            "name" : "Teller",
            "rotation" : [
                -0.0027771578170359135,
                0,
                0,
                0.9999961256980896
            ],
            "translation" : [
                0.013776788488030434,
                0.12062867730855942,
                0
            ]
        }
    ],
    "materials" : [
        {
            "doubleSided" : true,
            "emissiveFactor" : [
                0,
                0,
                0
            ],
            "name" : "Plates.001",
            "pbrMetallicRoughness" : {
                "baseColorFactor" : [
                    0.8881021738052368,
                    0.8825907707214355,
                    0.9113981127738953,
                    1
                ],
                "metallicFactor" : 0,
                "roughnessFactor" : 0.3030303120613098
            }
        }
    ],
    "meshes" : [
        {
            "name" : "Circle.002",
            "primitives" : [
                {
                    "attributes" : {
                        "POSITION" : 0,
                        "NORMAL" : 1,
                        "TEXCOORD_0" : 2
                    },
                    "indices" : 3,
                    "material" : 0
                }
            ]
        }
    ],
    "accessors" : [
        {
            "bufferView" : 0,
            "componentType" : 5126,
            "count" : 3312,
            "max" : [
                1.5656907558441162,
                0.15374405682086945,
                1.566821575164795
            ],
            "min" : [
                -1.5668210983276367,
                -0.12094251811504364,
                -1.5668209791183472
            ],
            "type" : "VEC3"
        },
        {
            "bufferView" : 1,
            "componentType" : 5126,
            "count" : 3312,
            "type" : "VEC3"
        },
        {
            "bufferView" : 2,
            "componentType" : 5126,
            "count" : 3312,
            "type" : "VEC2"
        },
        {
            "bufferView" : 3,
            "componentType" : 5123,
            "count" : 6132,
            "type" : "SCALAR"
        }
    ],
    "bufferViews" : [
        {
            "buffer" : 0,
            "byteLength" : 39744,
            "byteOffset" : 0
        },
        {
            "buffer" : 0,
            "byteLength" : 39744,
            "byteOffset" : 39744
        },
        {
            "buffer" : 0,
            "byteLength" : 26496,
            "byteOffset" : 79488
        },
        {
            "buffer" : 0,
            "byteLength" : 12264,
            "byteOffset" : 105984
        }
    ],
    "buffers" : [
        {
            "byteLength" : 118248,
            "uri" : "data:application/octet-stream;base64,"
        }
    ]
}
